<?xml version="1.0" encoding="UTF-8" standalone="no"?>
<!DOCTYPE svg PUBLIC "-//W3C//DTD SVG 1.1//EN"
 "http://www.w3.org/Graphics/SVG/1.1/DTD/svg11.dtd">
<!-- Generated by graphviz version 2.26.0 (20091210.2329)
 -->
<!-- Title: godep Pages: 1 -->
<svg width="1719pt" height="194pt"
 viewBox="0.00 0.00 1719.00 194.00" xmlns="http://www.w3.org/2000/svg" xmlns:xlink="http://www.w3.org/1999/xlink">
<g id="graph1" class="graph" transform="scale(1 1) rotate(0) translate(4 190)">
<title>godep</title>
<polygon fill="white" stroke="white" points="-4,5 -4,-190 1716,-190 1716,5 -4,5"/>
<!-- 16 -->
<g id="node1" class="node"><title>16</title>
<ellipse fill="paleturquoise" stroke="paleturquoise" cx="475" cy="-19" rx="157.184" ry="19.0919"/>
<text text-anchor="middle" x="475" y="-15.9" font-family="Times Roman,serif" font-size="14.00">code.google.com/p/snappy&#45;go/snappy</text>
</g>
<!-- 27 -->
<g id="node2" class="node"><title>27</title>
<ellipse fill="paleturquoise" stroke="paleturquoise" cx="791" cy="-19" rx="140.922" ry="19.0919"/>
<text text-anchor="middle" x="791" y="-15.9" font-family="Times Roman,serif" font-size="14.00">github.com/garyburd/redigo/redis</text>
</g>
<!-- 39 -->
<g id="node3" class="node"><title>39</title>
<ellipse fill="paleturquoise" stroke="paleturquoise" cx="150" cy="-19" rx="149.907" ry="19.0919"/>
<text text-anchor="middle" x="150" y="-15.9" font-family="Times Roman,serif" font-size="14.00">github.com/garyburd/gopkgdoc/doc</text>
</g>
<!-- 41 -->
<g id="node4" class="node"><title>41</title>
<ellipse fill="paleturquoise" stroke="paleturquoise" cx="475" cy="-93" rx="168.999" ry="19.0919"/>
<text text-anchor="middle" x="475" y="-89.9" font-family="Times Roman,serif" font-size="14.00">github.com/garyburd/gopkgdoc/database</text>
</g>
<!-- 41&#45;&gt;16 -->
<g id="edge2" class="edge"><title>41&#45;&gt;16</title>
<path fill="none" stroke="black" d="M475,-73.9432C475,-66.1493 475,-56.9538 475,-48.3381"/>
<polygon fill="black" stroke="black" points="478.5,-48.2494 475,-38.2495 471.5,-48.2495 478.5,-48.2494"/>
</g>
<!-- 41&#45;&gt;27 -->
<g id="edge6" class="edge"><title>41&#45;&gt;27</title>
<path fill="none" stroke="black" d="M548.291,-75.8369C596.92,-64.4491 660.749,-49.5019 710.744,-37.794"/>
<polygon fill="black" stroke="black" points="711.612,-41.1857 720.55,-35.4977 710.016,-34.37 711.612,-41.1857"/>
</g>
<!-- 41&#45;&gt;39 -->
<g id="edge4" class="edge"><title>41&#45;&gt;39</title>
<path fill="none" stroke="black" d="M400.03,-75.93C350.103,-64.5619 284.462,-49.616 232.966,-37.8906"/>
<polygon fill="black" stroke="black" points="233.721,-34.473 223.193,-35.6655 232.166,-41.2983 233.721,-34.473"/>
</g>
<!-- 44 -->
<g id="node8" class="node"><title>44</title>
<ellipse fill="paleturquoise" stroke="paleturquoise" cx="819" cy="-93" rx="157.184" ry="19.0919"/>
<text text-anchor="middle" x="819" y="-89.9" font-family="Times Roman,serif" font-size="14.00">code.google.com/p/goauth2/oauth/jwt</text>
</g>
<!-- 45 -->
<g id="node10" class="node"><title>45</title>
<ellipse fill="paleturquoise" stroke="paleturquoise" cx="1093" cy="-19" rx="142.836" ry="19.0919"/>
<text text-anchor="middle" x="1093" y="-15.9" font-family="Times Roman,serif" font-size="14.00">code.google.com/p/goauth2/oauth</text>
</g>
<!-- 44&#45;&gt;45 -->
<g id="edge8" class="edge"><title>44&#45;&gt;45</title>
<path fill="none" stroke="black" d="M883.241,-75.6503C924.183,-64.593 977.338,-50.2372 1019.89,-38.744"/>
<polygon fill="black" stroke="black" points="1020.89,-42.0996 1029.63,-36.1133 1019.07,-35.3417 1020.89,-42.0996"/>
</g>
<!-- 51 -->
<g id="node11" class="node"><title>51</title>
<ellipse fill="paleturquoise" stroke="paleturquoise" cx="989" cy="-167" rx="183.848" ry="19.0919"/>
<text text-anchor="middle" x="989" y="-163.9" font-family="Times Roman,serif" font-size="14.00">github.com/garyburd/gopkgdoc/gddo&#45;server/</text>
</g>
<!-- 51&#45;&gt;39 -->
<g id="edge16" class="edge"><title>51&#45;&gt;39</title>
<path fill="none" stroke="black" d="M809.848,-162.501C637.074,-156.412 388.683,-142.556 297,-112 252.671,-97.2261 208.228,-66.338 180.002,-44.2115"/>
<polygon fill="black" stroke="black" points="182.134,-41.4354 172.133,-37.939 177.771,-46.9091 182.134,-41.4354"/>
</g>
<!-- 51&#45;&gt;41 -->
<g id="edge14" class="edge"><title>51&#45;&gt;41</title>
<path fill="none" stroke="black" d="M881.562,-151.532C795.982,-139.211 676.467,-122.005 589.171,-109.437"/>
<polygon fill="black" stroke="black" points="589.621,-105.966 579.225,-108.005 588.624,-112.894 589.621,-105.966"/>
</g>
<!-- 51&#45;&gt;44 -->
<g id="edge12" class="edge"><title>51&#45;&gt;44</title>
<path fill="none" stroke="black" d="M946.102,-148.327C923.177,-138.348 894.787,-125.99 870.657,-115.486"/>
<polygon fill="black" stroke="black" points="871.861,-112.193 861.296,-111.411 869.068,-118.611 871.861,-112.193"/>
</g>
<!-- 52 -->
<g id="node13" class="node"><title>52</title>
<ellipse fill="paleturquoise" stroke="paleturquoise" cx="1159" cy="-93" rx="164.963" ry="19.0919"/>
<text text-anchor="middle" x="1159" y="-89.9" font-family="Times Roman,serif" font-size="14.00">code.google.com/p/go.talks/pkg/present</text>
</g>
<!-- 51&#45;&gt;52 -->
<g id="edge10" class="edge"><title>51&#45;&gt;52</title>
<path fill="none" stroke="black" d="M1031.9,-148.327C1054.82,-138.348 1083.21,-125.99 1107.34,-115.486"/>
<polygon fill="black" stroke="black" points="1108.93,-118.611 1116.7,-111.411 1106.14,-112.193 1108.93,-118.611"/>
</g>
<!-- 53 -->
<g id="node18" class="node"><title>53</title>
<ellipse fill="paleturquoise" stroke="paleturquoise" cx="1487" cy="-93" rx="145.163" ry="19.0919"/>
<text text-anchor="middle" x="1487" y="-89.9" font-family="Times Roman,serif" font-size="14.00">github.com/garyburd/indigo/server</text>
</g>
<!-- 51&#45;&gt;53 -->
<g id="edge18" class="edge"><title>51&#45;&gt;53</title>
<path fill="none" stroke="black" d="M1094,-151.397C1178.41,-138.854 1296.46,-121.314 1381.1,-108.736"/>
<polygon fill="black" stroke="black" points="1381.62,-112.198 1390.99,-107.266 1380.59,-105.274 1381.62,-112.198"/>
</g>
<!-- 54 -->
<g id="node20" class="node"><title>54</title>
<ellipse fill="paleturquoise" stroke="paleturquoise" cx="1573" cy="-19" rx="138.093" ry="19.0919"/>
<text text-anchor="middle" x="1573" y="-15.9" font-family="Times Roman,serif" font-size="14.00">github.com/garyburd/indigo/web</text>
</g>
<!-- 51&#45;&gt;54 -->
<g id="edge20" class="edge"><title>51&#45;&gt;54</title>
<path fill="none" stroke="black" d="M1170.97,-164.025C1352.73,-159.119 1609.6,-146.159 1641,-112 1652.43,-99.566 1648.28,-89.2416 1641,-74 1635.32,-62.1064 1625.68,-51.9554 1615.41,-43.7324"/>
<polygon fill="black" stroke="black" points="1617.22,-40.7146 1607.1,-37.5547 1613.04,-46.3313 1617.22,-40.7146"/>
</g>
<!-- 53&#45;&gt;54 -->
<g id="edge22" class="edge"><title>53&#45;&gt;54</title>
<path fill="none" stroke="black" d="M1509.15,-73.9432C1519.48,-65.0526 1531.93,-54.3383 1543.08,-44.7411"/>
<polygon fill="black" stroke="black" points="1545.63,-47.1678 1550.93,-37.9923 1541.06,-41.8617 1545.63,-47.1678"/>
</g>
</g>
</svg>
